<mxfile host="app.diagrams.net" modified="2023-09-22T08:50:41.710Z" agent="Mozilla/5.0 (Macintosh; Intel Mac OS X 10.15; rv:109.0) Gecko/20100101 Firefox/115.0" version="21.6.8" etag="g6KbVcFGqoRkIUSc1i10" type="github">
  <diagram name="Страница — 1" id="eur0_zKmWqZcPtBGQbXU">
    <mxGraphModel>
      <root>
        <mxCell id="0" />
        <mxCell id="1" parent="0" />
      </root>
    </mxGraphModel>
  </diagram>
</mxfile>
